<svg width="529" height="69" viewBox="0 0 529 69" fill="none" xmlns="http://www.w3.org/2000/svg">
<path d="M71.233 35.3798C71.233 45.0129 68.0116 52.785 61.5687 58.6962C55.1258 64.6074 46.4154 67.563 35.4375 67.563C34.0614 67.563 31.2778 67.5004 27.0868 67.3753C22.7707 67.2502 19.8933 67.1877 18.4546 67.1877C12.6372 67.1877 6.97625 67.3128 1.47165 67.563C0.971231 67.563 0.721022 67.1251 0.721022 66.2494C0.721022 65.4675 0.971231 65.0452 1.47165 64.9827C4.06757 64.6699 6.0536 64.2633 7.42975 63.7629C8.8059 63.2312 9.75982 62.5275 10.2915 61.6518C10.8545 60.7761 11.136 59.2435 11.136 57.0542V13.0956C11.136 10.9376 10.8701 9.42067 10.3384 8.54494C9.83801 7.63793 8.89973 6.91858 7.52358 6.38689C6.14743 5.85519 4.13012 5.43297 1.47165 5.12021C0.971231 5.12021 0.721022 4.68234 0.721022 3.8066C0.721022 2.93087 0.971231 2.49301 1.47165 2.49301C5.13095 2.74322 10.7919 2.86832 18.4546 2.86832C19.8933 2.86832 22.7707 2.82141 27.0868 2.72758C31.2778 2.63375 34.0614 2.58684 35.4375 2.58684C46.1339 2.58684 54.7662 5.6519 61.3341 11.782C67.9334 17.8809 71.233 25.7468 71.233 35.3798ZM60.9119 35.3798C60.9119 26.8727 58.4724 19.8043 53.5933 14.1746C48.7455 8.51366 42.6623 5.68317 35.3437 5.68317H35.0622L26.2423 5.87083C22.5518 5.99593 20.7065 7.80995 20.7065 11.3129V58.8369C20.7065 62.4024 22.5518 64.1851 26.2423 64.1851L35.0622 64.4666C42.3495 64.4666 48.4797 61.6987 53.4526 56.1628C58.4255 50.5957 60.9119 43.668 60.9119 35.3798ZM116.473 56.8174C114.744 60.5105 113.335 64.0327 112.246 67.3842C104.198 67.1281 98.4666 67 95.051 67C91.6782 67 85.9571 67.1281 77.8879 67.3842C77.5463 67.3842 77.3755 67.0854 77.3755 66.4877C77.3755 65.954 77.5463 65.6658 77.8879 65.6231C79.6597 65.4096 81.0152 65.1321 81.9545 64.7906C82.8938 64.4277 83.5449 63.9474 83.9078 63.3496C84.292 62.7519 84.4842 61.7059 84.4842 60.2116V30.08C84.4842 28.6071 84.3027 27.5717 83.9398 26.974C83.5983 26.3549 82.9578 25.864 82.0186 25.5011C81.0793 25.1382 79.7024 24.85 77.8879 24.6365C77.5463 24.6365 77.3755 24.3376 77.3755 23.7399C77.3755 23.1422 77.5463 22.8433 77.8879 22.8433C83.2674 23.0995 88.7749 23.2276 94.4106 23.2276C100.089 23.2276 105.607 23.0995 110.965 22.8433C111.456 26.1521 112.171 29.4183 113.111 32.6417C113.111 33.0686 112.737 33.2821 111.99 33.2821C111.627 33.2821 111.403 33.1327 111.318 32.8338C109.738 27.7959 106.365 25.2769 101.199 25.2769H94.7308C92.2545 25.2769 91.0164 26.5577 91.0164 29.1194V43.3687H99.0856C101.22 43.3687 102.661 42.8777 103.408 41.8957C104.177 40.9137 104.711 39.1739 105.009 36.6763C105.009 36.3348 105.308 36.164 105.906 36.164C106.504 36.164 106.803 36.3348 106.803 36.6763C106.803 37.7437 106.739 39.0885 106.611 40.7109C106.482 42.2693 106.418 43.5394 106.418 44.5214C106.418 45.5247 106.482 46.8056 106.611 48.3639C106.739 50.029 106.803 51.3952 106.803 52.4626C106.803 52.8041 106.504 52.9749 105.906 52.9749C105.308 52.9749 105.009 52.8041 105.009 52.4626C104.689 49.8582 104.124 48.033 103.312 46.987C102.523 45.941 101.114 45.418 99.0856 45.418H91.0164V61.1722C91.0164 63.6912 92.2545 64.9507 94.7308 64.9507H101.711C104.252 64.9507 106.771 64.1288 109.268 62.4851C111.766 60.82 113.602 58.7493 114.776 56.273C114.861 56.0809 115.043 55.9848 115.32 55.9848C115.619 55.9848 115.886 56.0702 116.121 56.241C116.356 56.3904 116.473 56.5826 116.473 56.8174ZM189.184 23.6118C189.184 23.868 189.098 24.1028 188.927 24.3163C188.778 24.5298 188.607 24.6365 188.415 24.6365C186.835 24.7859 185.544 25.2983 184.541 26.1735C183.537 27.0274 182.502 28.6711 181.435 31.1047L165.104 67.8966C164.997 68.2381 164.698 68.4089 164.207 68.4089C163.823 68.4089 163.524 68.2381 163.311 67.8966L154.153 48.7482L143.618 67.8966C143.405 68.2381 143.106 68.4089 142.721 68.4089C142.252 68.4089 141.942 68.2381 141.793 67.8966L125.75 31.1047C124.747 28.8205 123.69 27.2302 122.58 26.3336C121.47 25.4157 119.923 24.85 117.937 24.6365C117.767 24.6365 117.607 24.5511 117.457 24.3803C117.308 24.1882 117.233 23.9747 117.233 23.7399C117.233 23.1422 117.404 22.8433 117.745 22.8433C119.176 22.8433 120.67 22.9074 122.228 23.0355C123.68 23.1635 125.046 23.2276 126.327 23.2276C127.629 23.2276 129.166 23.1635 130.938 23.0355C132.795 22.9074 134.439 22.8433 135.869 22.8433C136.211 22.8433 136.381 23.1422 136.381 23.7399C136.381 24.3376 136.275 24.6365 136.061 24.6365C134.631 24.7432 133.499 25.1061 132.667 25.7252C131.856 26.3443 131.45 27.1555 131.45 28.1588C131.45 28.6711 131.621 29.3115 131.962 30.08L145.219 60.0195L152.744 45.8022L145.731 31.1047C144.472 28.479 143.437 26.7926 142.625 26.0454C141.814 25.2769 140.587 24.8073 138.943 24.6365C138.794 24.6365 138.644 24.5511 138.495 24.3803C138.367 24.1882 138.303 23.9747 138.303 23.7399C138.303 23.1422 138.452 22.8433 138.751 22.8433C140.181 22.8433 141.494 22.9074 142.689 23.0355C143.842 23.1635 145.07 23.2276 146.372 23.2276C147.653 23.2276 149.008 23.1635 150.438 23.0355C151.911 22.9074 153.363 22.8433 154.793 22.8433C155.135 22.8433 155.306 23.1422 155.306 23.7399C155.306 24.3376 155.199 24.6365 154.985 24.6365C152.125 24.8286 150.695 25.6398 150.695 27.0701C150.695 27.7105 151.026 28.7031 151.687 30.048L156.33 39.4621L160.941 30.8485C161.582 29.6317 161.902 28.6071 161.902 27.7745C161.902 25.8106 160.472 24.7646 157.611 24.6365C157.355 24.6365 157.227 24.3376 157.227 23.7399C157.227 23.5264 157.291 23.3236 157.419 23.1315C157.547 22.9394 157.675 22.8433 157.803 22.8433C158.828 22.8433 160.087 22.9074 161.582 23.0355C163.012 23.1635 164.186 23.2276 165.104 23.2276C165.766 23.2276 166.737 23.1742 168.018 23.0675C169.64 22.918 170.996 22.8433 172.085 22.8433C172.341 22.8433 172.469 23.0995 172.469 23.6118C172.469 24.2949 172.234 24.6365 171.764 24.6365C170.099 24.8073 168.754 25.2662 167.73 26.0134C166.726 26.7605 165.467 28.4576 163.951 31.1047L157.803 42.4721L166.129 59.4431L178.425 30.8485C178.852 29.8025 179.065 28.8419 179.065 27.9667C179.065 25.8746 177.635 24.7646 174.774 24.6365C174.518 24.6365 174.39 24.3376 174.39 23.7399C174.39 23.1422 174.582 22.8433 174.966 22.8433C176.012 22.8433 177.251 22.9074 178.681 23.0355C180.004 23.1635 181.114 23.2276 182.011 23.2276C182.95 23.2276 184.039 23.1635 185.277 23.0355C186.558 22.9074 187.711 22.8433 188.735 22.8433C189.034 22.8433 189.184 23.0995 189.184 23.6118ZM213.745 66.4877C213.745 67.0854 213.574 67.3842 213.233 67.3842C211.802 67.3842 210.105 67.3202 208.141 67.1921C206.263 67.064 204.673 67 203.37 67C202.068 67 200.478 67.064 198.599 67.1921C196.614 67.3202 194.896 67.3842 193.444 67.3842C193.102 67.3842 192.932 67.0854 192.932 66.4877C192.932 65.954 193.102 65.6658 193.444 65.6231C196.027 65.3242 197.777 64.8439 198.695 64.1822C199.635 63.5204 200.104 62.1969 200.104 60.2116V30.08C200.104 28.5857 199.912 27.5397 199.528 26.942C199.165 26.3229 198.514 25.8426 197.575 25.5011C196.635 25.1382 195.258 24.85 193.444 24.6365C193.102 24.6365 192.932 24.3376 192.932 23.7399C192.932 23.1422 193.102 22.8433 193.444 22.8433C194.896 22.8433 196.614 22.9074 198.599 23.0355C200.478 23.1635 202.068 23.2276 203.37 23.2276C204.673 23.2276 206.263 23.1635 208.141 23.0355C210.105 22.9074 211.802 22.8433 213.233 22.8433C213.574 22.8433 213.745 23.1422 213.745 23.7399C213.745 24.3376 213.574 24.6365 213.233 24.6365C211.44 24.85 210.073 25.1382 209.134 25.5011C208.195 25.8426 207.544 26.3123 207.181 26.91C206.818 27.5077 206.636 28.5644 206.636 30.08V60.2116C206.636 61.6845 206.818 62.7306 207.181 63.3496C207.544 63.9474 208.184 64.4277 209.102 64.7906C210.041 65.1321 211.408 65.4096 213.201 65.6231C213.564 65.6658 213.745 65.954 213.745 66.4877ZM267.981 66.4877C267.981 67.0854 267.81 67.3842 267.468 67.3842C266.038 67.3842 264.33 67.3202 262.345 67.1921C260.445 67.064 258.844 67 257.542 67C256.283 67 254.543 67.064 252.323 67.1921C249.996 67.3202 248.117 67.3842 246.687 67.3842C246.345 67.3842 246.175 67.0854 246.175 66.4877C246.175 65.954 246.324 65.6658 246.623 65.6231C249.505 65.2816 250.946 64.5878 250.946 63.5418C250.946 62.944 250.476 62.1755 249.537 61.2363L236.825 48.2999C236.141 47.6167 235.544 47.1685 235.031 46.955C234.54 46.7415 233.857 46.6348 232.982 46.6348V60.2116C232.982 61.6845 233.164 62.7306 233.526 63.3496C233.911 63.9474 234.572 64.4277 235.512 64.7906C236.472 65.1321 237.839 65.4096 239.61 65.6231C239.973 65.6658 240.155 65.954 240.155 66.4877C240.155 67.0854 239.984 67.3842 239.642 67.3842C238.212 67.3842 236.504 67.3202 234.519 67.1921C232.619 67.064 231.018 67 229.716 67C228.435 67 226.855 67.064 224.977 67.1921C222.992 67.3202 221.284 67.3842 219.854 67.3842C219.512 67.3842 219.341 67.0854 219.341 66.4877C219.341 65.954 219.512 65.6658 219.854 65.6231C222.437 65.3242 224.187 64.8439 225.105 64.1822C226.044 63.5204 226.514 62.1969 226.514 60.2116V30.08C226.514 28.5857 226.322 27.5397 225.937 26.942C225.575 26.3229 224.923 25.8426 223.984 25.5011C223.045 25.1382 221.668 24.85 219.854 24.6365C219.512 24.6365 219.341 24.3376 219.341 23.7399C219.341 23.1422 219.512 22.8433 219.854 22.8433C221.284 22.8433 222.992 22.9074 224.977 23.0355C226.855 23.1635 228.435 23.2276 229.716 23.2276C231.018 23.2276 232.619 23.1635 234.519 23.0355C236.504 22.9074 238.212 22.8433 239.642 22.8433C239.984 22.8433 240.155 23.1422 240.155 23.7399C240.155 24.3376 239.984 24.6365 239.642 24.6365C237.828 24.85 236.451 25.1382 235.512 25.5011C234.572 25.8426 233.911 26.3229 233.526 26.942C233.164 27.5397 232.982 28.5857 232.982 30.08V44.5854C233.815 44.5854 234.487 44.4787 234.999 44.2652C235.512 44.0518 236.12 43.6035 236.825 42.9204L250.882 29.0554C252.034 27.9667 252.611 27.1768 252.611 26.6858C252.611 26.1095 252.333 25.6825 251.778 25.405C251.245 25.1061 250.156 24.85 248.512 24.6365C248.171 24.6365 248 24.3376 248 23.7399C248 23.1422 248.192 22.8433 248.576 22.8433C249.579 22.8433 250.903 22.9074 252.547 23.0355C254.297 23.1635 255.749 23.2276 256.902 23.2276C258.054 23.2276 259.335 23.1529 260.744 23.0034C261.918 22.8967 262.921 22.8433 263.754 22.8433C264.053 22.8433 264.202 23.1422 264.202 23.7399C264.202 24.3376 264.032 24.6365 263.69 24.6365C261.641 24.8927 260.029 25.3089 258.855 25.8853C257.681 26.4617 256.272 27.529 254.628 29.0874L240.027 42.9844L258.182 61.4284C259.442 62.7519 260.68 63.7125 261.897 64.3103C263.135 64.8866 264.971 65.3242 267.404 65.6231C267.789 65.6658 267.981 65.954 267.981 66.4877ZM292.609 66.4877C292.609 67.0854 292.438 67.3842 292.096 67.3842C290.666 67.3842 288.969 67.3202 287.005 67.1921C285.127 67.064 283.536 67 282.234 67C280.932 67 279.341 67.064 277.463 67.1921C275.478 67.3202 273.759 67.3842 272.308 67.3842C271.966 67.3842 271.795 67.0854 271.795 66.4877C271.795 65.954 271.966 65.6658 272.308 65.6231C274.891 65.3242 276.641 64.8439 277.559 64.1822C278.498 63.5204 278.968 62.1969 278.968 60.2116V30.08C278.968 28.5857 278.776 27.5397 278.392 26.942C278.029 26.3229 277.378 25.8426 276.438 25.5011C275.499 25.1382 274.122 24.85 272.308 24.6365C271.966 24.6365 271.795 24.3376 271.795 23.7399C271.795 23.1422 271.966 22.8433 272.308 22.8433C273.759 22.8433 275.478 22.9074 277.463 23.0355C279.341 23.1635 280.932 23.2276 282.234 23.2276C283.536 23.2276 285.127 23.1635 287.005 23.0355C288.969 22.9074 290.666 22.8433 292.096 22.8433C292.438 22.8433 292.609 23.1422 292.609 23.7399C292.609 24.3376 292.438 24.6365 292.096 24.6365C290.303 24.85 288.937 25.1382 287.998 25.5011C287.058 25.8426 286.407 26.3123 286.045 26.91C285.682 27.5077 285.5 28.5644 285.5 30.08V60.2116C285.5 61.6845 285.682 62.7306 286.045 63.3496C286.407 63.9474 287.048 64.4277 287.966 64.7906C288.905 65.1321 290.271 65.4096 292.064 65.6231C292.427 65.6658 292.609 65.954 292.609 66.4877ZM334.549 35.9078C334.549 39.6649 333.097 42.8243 330.194 45.386C327.312 47.9263 323.736 49.1964 319.467 49.1964C316.905 49.1964 314.386 49.0897 311.91 48.8762V60.2116C311.91 61.7059 312.091 62.7519 312.454 63.3496C312.838 63.9474 313.489 64.4277 314.407 64.7906C315.347 65.1321 316.713 65.4096 318.506 65.6231C318.848 65.6658 319.018 65.954 319.018 66.4877C319.018 67.0854 318.848 67.3842 318.506 67.3842C317.076 67.3842 315.379 67.3202 313.415 67.1921C311.536 67.064 309.946 67 308.644 67C307.342 67 305.74 67.064 303.841 67.1921C301.855 67.3202 300.148 67.3842 298.717 67.3842C298.376 67.3842 298.205 67.0854 298.205 66.4877C298.205 65.954 298.376 65.6658 298.717 65.6231C301.3 65.3242 303.051 64.8439 303.969 64.1822C304.908 63.5204 305.378 62.1969 305.378 60.2116V30.08C305.378 28.5857 305.185 27.5397 304.801 26.942C304.438 26.3229 303.787 25.8426 302.848 25.5011C301.909 25.1382 300.532 24.85 298.717 24.6365C298.376 24.6365 298.205 24.3376 298.205 23.7399C298.205 23.1422 298.376 22.8433 298.717 22.8433C300.148 22.8433 301.855 22.9074 303.841 23.0355C305.74 23.1635 307.342 23.2276 308.644 23.2276C309.946 23.2276 311.536 23.1635 313.415 23.0355C315.379 22.9074 317.076 22.8433 318.506 22.8433C323.757 22.8433 327.739 23.9534 330.45 26.1735C333.182 28.3936 334.549 31.6384 334.549 35.9078ZM327.44 35.9078C327.44 32.4923 326.597 29.8239 324.91 27.9026C323.245 25.9814 321.025 25.0207 318.25 25.0207C316.585 25.0207 315.293 25.1488 314.375 25.405C313.479 25.6612 312.838 26.0774 312.454 26.6538C312.091 27.2302 311.91 28.3723 311.91 30.08V44.7776C311.91 45.6955 312.198 46.3146 312.774 46.6348C313.351 46.9336 314.6 47.0831 316.521 47.0831C320 47.0831 322.69 46.0904 324.59 44.1051C326.49 42.1198 327.44 39.3874 327.44 35.9078ZM377.455 56.8174C375.726 60.5105 374.317 64.0327 373.228 67.3842C365.18 67.1281 359.448 67 356.033 67C352.66 67 346.939 67.1281 338.87 67.3842C338.528 67.3842 338.357 67.0854 338.357 66.4877C338.357 65.954 338.528 65.6658 338.87 65.6231C340.642 65.4096 341.997 65.1321 342.936 64.7906C343.876 64.4277 344.527 63.9474 344.89 63.3496C345.274 62.7519 345.466 61.7059 345.466 60.2116V30.08C345.466 28.6071 345.285 27.5717 344.922 26.974C344.58 26.3549 343.94 25.864 343 25.5011C342.061 25.1382 340.684 24.85 338.87 24.6365C338.528 24.6365 338.357 24.3376 338.357 23.7399C338.357 23.1422 338.528 22.8433 338.87 22.8433C344.249 23.0995 349.757 23.2276 355.393 23.2276C361.071 23.2276 366.589 23.0995 371.947 22.8433C372.438 26.1521 373.153 29.4183 374.093 32.6417C374.093 33.0686 373.719 33.2821 372.972 33.2821C372.609 33.2821 372.385 33.1327 372.299 32.8338C370.72 27.7959 367.347 25.2769 362.181 25.2769H355.713C353.236 25.2769 351.998 26.5577 351.998 29.1194V43.3687H360.068C362.202 43.3687 363.643 42.8777 364.39 41.8957C365.159 40.9137 365.693 39.1739 365.991 36.6763C365.991 36.3348 366.29 36.164 366.888 36.164C367.486 36.164 367.785 36.3348 367.785 36.6763C367.785 37.7437 367.721 39.0885 367.592 40.7109C367.464 42.2693 367.4 43.5394 367.4 44.5214C367.4 45.5247 367.464 46.8056 367.592 48.3639C367.721 50.029 367.785 51.3952 367.785 52.4626C367.785 52.8041 367.486 52.9749 366.888 52.9749C366.29 52.9749 365.991 52.8041 365.991 52.4626C365.671 49.8582 365.105 48.033 364.294 46.987C363.504 45.941 362.096 45.418 360.068 45.418H351.998V61.1722C351.998 63.6912 353.236 64.9507 355.713 64.9507H362.693C365.234 64.9507 367.753 64.1288 370.25 62.4851C372.748 60.82 374.584 58.7493 375.758 56.273C375.843 56.0809 376.025 55.9848 376.302 55.9848C376.601 55.9848 376.868 56.0702 377.103 56.241C377.337 56.3904 377.455 56.5826 377.455 56.8174ZM428.199 45.418C428.199 51.9929 426.001 57.2977 421.603 61.3323C417.205 65.3669 411.26 67.3842 403.767 67.3842C402.828 67.3842 400.928 67.3416 398.068 67.2562C395.122 67.1708 393.158 67.1281 392.176 67.1281C388.205 67.1281 384.341 67.2135 380.584 67.3842C380.243 67.3842 380.072 67.0854 380.072 66.4877C380.072 65.954 380.243 65.6658 380.584 65.6231C382.356 65.4096 383.712 65.1321 384.651 64.7906C385.59 64.4277 386.241 63.9474 386.604 63.3496C386.989 62.7519 387.181 61.7059 387.181 60.2116V30.2081C387.181 28.7352 386.999 27.6998 386.636 27.1021C386.295 26.483 385.654 25.992 384.715 25.6291C383.776 25.2662 382.399 24.9781 380.584 24.7646C380.243 24.7646 380.072 24.4657 380.072 23.868C380.072 23.2703 380.243 22.9714 380.584 22.9714C383.082 23.1422 386.946 23.2276 392.176 23.2276C393.158 23.2276 395.122 23.1956 398.068 23.1315C400.928 23.0675 402.828 23.0355 403.767 23.0355C411.068 23.0355 416.96 25.1275 421.443 29.3115C425.947 33.4742 428.199 38.8431 428.199 45.418ZM421.155 45.418C421.155 39.6116 419.49 34.7871 416.159 30.9446C412.851 27.0808 408.699 25.1488 403.703 25.1488H403.511L397.491 25.2769C394.972 25.3623 393.713 26.6004 393.713 28.9913V61.4284C393.713 63.862 394.972 65.0788 397.491 65.0788L403.511 65.2709C408.485 65.2709 412.669 63.3817 416.063 59.6032C419.458 55.8034 421.155 51.075 421.155 45.418ZM455.652 66.4877C455.652 67.0854 455.481 67.3842 455.14 67.3842C453.71 67.3842 452.012 67.3202 450.048 67.1921C448.17 67.064 446.58 67 445.277 67C443.975 67 442.385 67.064 440.506 67.1921C438.521 67.3202 436.803 67.3842 435.351 67.3842C435.009 67.3842 434.839 67.0854 434.839 66.4877C434.839 65.954 435.009 65.6658 435.351 65.6231C437.934 65.3242 439.684 64.8439 440.602 64.1822C441.542 63.5204 442.011 62.1969 442.011 60.2116V30.08C442.011 28.5857 441.819 27.5397 441.435 26.942C441.072 26.3229 440.421 25.8426 439.482 25.5011C438.542 25.1382 437.165 24.85 435.351 24.6365C435.009 24.6365 434.839 24.3376 434.839 23.7399C434.839 23.1422 435.009 22.8433 435.351 22.8433C436.803 22.8433 438.521 22.9074 440.506 23.0355C442.385 23.1635 443.975 23.2276 445.277 23.2276C446.58 23.2276 448.17 23.1635 450.048 23.0355C452.012 22.9074 453.71 22.8433 455.14 22.8433C455.481 22.8433 455.652 23.1422 455.652 23.7399C455.652 24.3376 455.481 24.6365 455.14 24.6365C453.347 24.85 451.98 25.1382 451.041 25.5011C450.102 25.8426 449.451 26.3123 449.088 26.91C448.725 27.5077 448.543 28.5644 448.543 30.08V60.2116C448.543 61.6845 448.725 62.7306 449.088 63.3496C449.451 63.9474 450.091 64.4277 451.009 64.7906C451.948 65.1321 453.315 65.4096 455.108 65.6231C455.471 65.6658 455.652 65.954 455.652 66.4877ZM528.184 66.2494C528.184 67.1251 527.934 67.563 527.434 67.563C525.276 67.563 522.836 67.4691 520.115 67.2815C517.769 67.0938 515.768 67 514.11 67C512.202 67 509.841 67.0938 507.026 67.2815C504.055 67.4691 501.521 67.563 499.426 67.563C498.926 67.563 498.675 67.1251 498.675 66.2494C498.675 65.3736 498.863 64.9358 499.238 64.9358C502.022 64.8107 504.024 64.451 505.243 63.8568C506.463 63.2312 507.073 62.2773 507.073 60.995C507.073 60.1818 506.76 58.8838 506.135 57.1011L500.833 41.3849H481.505L476.157 55.9283C475.468 57.8674 475.124 59.3686 475.124 60.432C475.124 63.1843 477.658 64.6856 482.725 64.9358C483.1 64.9358 483.287 65.3736 483.287 66.2494C483.287 67.1251 483.037 67.563 482.537 67.563C480.66 67.563 478.58 67.4691 476.297 67.2815C474.139 67.0938 472.216 67 470.527 67C469.182 67 467.493 67.0938 465.46 67.2815C463.333 67.4691 461.519 67.563 460.018 67.563C459.549 67.563 459.314 67.172 459.314 66.3901C459.314 65.5144 459.674 65.0452 460.393 64.9827C462.989 64.7325 465.038 64.0131 466.539 62.8246C468.072 61.6361 469.651 59.2122 471.277 55.5529L493.233 1.64856C493.421 1.14814 493.859 0.897928 494.547 0.897928C495.298 0.897928 495.767 1.1325 495.954 1.60164L515.33 55.5529C516.425 58.5867 517.895 60.823 519.74 62.2617C521.616 63.7004 524.118 64.6074 527.246 64.9827C527.872 65.0452 528.184 65.4675 528.184 66.2494ZM499.801 38.3824L491.544 14.4092L482.631 38.3824H499.801Z" fill="#242424"/>
</svg>
